# xmcd
#
# Track frame offsets:
#	150
#	17655
#	38817
#	53555
#	66487
#	80612
#	99157
#
# Disc length: 1518 seconds
#
# Revision: 2
# Processed by: cddbd v1.5.2PL0 Copyright (c) Steve Scherf et al.
# Submitted via: audiograbber 1.83.01
#
DISCID=4f05ec07
DTITLE=Various Artist - A Gift Of Song
DYEAR=1997
DGENRE=
TTITLE0=Shania Twain - God Bless The Child
TTITLE1=Toby Keith - Santa, I'm Right Here
TTITLE2=Kathy Mattea - Mary, Did You Know?
TTITLE3=Sammy Kershaw - Please Come Home For Christmas
TTITLE4=Toby Keith - Blame It On The Mistletoe
TTITLE5=Kathy Mattea - There's A New Kid In Town
TTITLE6=Sammy Kershaw - Christmas Time's A Comin'
EXTD=
EXTT0=Shania Twain\n
EXTT1=Toby Keith
EXTT2=Kathy Mattea
EXTT3=Sammy Kershaw
EXTT4=Toby Keith
EXTT5=Kathy Mattea
EXTT6=Sammy Kershaw
PLAYORDER=
